{
  "accessors": [
    {
      "bufferView": 2,
      "componentType": 5126,
      "count": 422,
      "max": [
        652.063232421875,
        3488.671142578125,
        32.0671501159668
      ],
      "min": [
        -652.063232421875,
        22.060670852661133,
        -991.734130859375
      ],
      "type": "VEC3"
    },
    {
      "bufferView": 2,
      "byteOffset": 5064,
      "componentType": 5126,
      "count": 422,
      "max": [
        1.0,
        1.0,
        1.0
      ],
      "min": [
        -1.0,
        -1.0,
        -1.0
      ],
      "type": "VEC3"
    },
    {
      "bufferView": 3,
      "componentType": 5126,
      "count": 422,
      "max": [
        1.0,
        1.0,
        0.9834625124931335,
        1.0
      ],
      "min": [
        -1.0,
        -1.0,
        -0.9830985069274902,
        1.0
      ],
      "type": "VEC4"
    },
    {
      "bufferView": 1,
      "componentType": 5126,
      "count": 422,
      "max": [
        0.9999999403953552,
        0.9022873640060425
      ],
      "min": [
        0.0,
        0.0
      ],
      "type": "VEC2"
    },
    {
      "bufferView": 0,
      "componentType": 5125,
      "count": 732,
      "type": "SCALAR"
    },
    {
      "bufferView": 2,
      "byteOffset": 10128,
      "componentType": 5126,
      "count": 240,
      "max": [
        652.063232421875,
        2521.197265625,
        32.0671501159668
      ],
      "min": [
        -652.063232421875,
        22.060670852661133,
        -991.734130859375
      ],
      "type": "VEC3"
    },
    {
      "bufferView": 2,
      "byteOffset": 13008,
      "componentType": 5126,
      "count": 240,
      "max": [
        1.0,
        0.983096718788147,
        0.9830968379974365
      ],
      "min": [
        -1.0,
        -0.9830968379974365,
        -0.9830968379974365
      ],
      "type": "VEC3"
    },
    {
      "bufferView": 3,
      "byteOffset": 6752,
      "componentType": 5126,
      "count": 240,
      "max": [
        1.0,
        0.9743747711181641,
        0.983096718788147,
        1.0
      ],
      "min": [
        -1.0,
        -0.974370002746582,
        -0.9830985069274902,
        1.0
      ],
      "type": "VEC4"
    },
    {
      "bufferView": 1,
      "byteOffset": 3376,
      "componentType": 5126,
      "count": 240,
      "max": [
        0.7935393452644348,
        0.9022873640060425
      ],
      "min": [
        0.0,
        0.0
      ],
      "type": "VEC2"
    },
    {
      "bufferView": 0,
      "byteOffset": 2928,
      "componentType": 5125,
      "count": 420,
      "type": "SCALAR"
    }
  ],
  "asset": {
    "extras": {
      "author": "filipp.aronovits (https://sketchfab.com/filipp.aronovits)",
      "license": "CC-BY-4.0 (http://creativecommons.org/licenses/by/4.0/)",
      "source": "https://sketchfab.com/3d-models/wooden-easel-stand-game-asset-f6a4467f137141209b6c585a8c5a3ad6",
      "title": "Wooden Easel Stand - Game asset"
    },
    "generator": "Sketchfab-14.95.0",
    "version": "2.0"
  },
  "bufferViews": [
    {
      "buffer": 0,
      "byteLength": 4608,
      "name": "floatBufferViews",
      "target": 34963
    },
    {
      "buffer": 0,
      "byteLength": 5296,
      "byteOffset": 4608,
      "byteStride": 8,
      "name": "floatBufferViews",
      "target": 34962
    },
    {
      "buffer": 0,
      "byteLength": 15888,
      "byteOffset": 9904,
      "byteStride": 12,
      "name": "floatBufferViews",
      "target": 34962
    },
    {
      "buffer": 0,
      "byteLength": 10592,
      "byteOffset": 25792,
      "byteStride": 16,
      "name": "floatBufferViews",
      "target": 34962
    }
  ],
  "buffers": [
    {
      "byteLength": 36384,
      "uri": "scene.bin"
    }
  ],
  "images": [
    {
      "uri": "textures/Scene_-_Root_baseColor.png"
    },
    {
      "uri": "textures/Scene_-_Root_metallicRoughness.png"
    },
    {
      "uri": "textures/Scene_-_Root_normal.png"
    }
  ],
  "materials": [
    {
      "doubleSided": true,
      "name": "Scene_-_Root",
      "normalTexture": {
        "index": 2
      },
      "pbrMetallicRoughness": {
        "baseColorTexture": {
          "index": 0
        },
        "metallicRoughnessTexture": {
          "index": 1
        }
      }
    }
  ],
  "meshes": [
    {
      "name": "Easel_LOD0__0",
      "primitives": [
        {
          "attributes": {
            "NORMAL": 1,
            "POSITION": 0,
            "TANGENT": 2,
            "TEXCOORD_0": 3
          },
          "indices": 4,
          "material": 0,
          "mode": 4
        }
      ]
    },
    {
      "name": "Easel_LOD1__0",
      "primitives": [
        {
          "attributes": {
            "NORMAL": 6,
            "POSITION": 5,
            "TANGENT": 7,
            "TEXCOORD_0": 8
          },
          "indices": 9,
          "material": 0,
          "mode": 4
        }
      ]
    }
  ],
  "nodes": [
    {
      "children": [
        1
      ],
      "matrix": [
        0.2357000857591629,
        0.0,
        0.0,
        0.0,
        0.0,
        5.2335932423189325e-17,
        -0.2357000857591629,
        0.0,
        0.0,
        0.2357000857591629,
        5.2335932423189325e-17,
        0.0,
        0.0,
        0.0,
        0.0,
        1.0
      ],
      "name": "Sketchfab_model"
    },
    {
      "children": [
        2
      ],
      "matrix": [
        0.009999999776482582,
        0.0,
        0.0,
        0.0,
        0.0,
        0.0,
        0.009999999776482582,
        0.0,
        0.0,
        -0.009999999776482582,
        0.0,
        0.0,
        0.0,
        0.0,
        0.0,
        1.0
      ],
      "name": "6374181caf3c4c389a74b05e3c0e4bca.fbx"
    },
    {
      "children": [
        3,
        5
      ],
      "name": "RootNode"
    },
    {
      "children": [
        4
      ],
      "matrix": [
        0.31544017791748047,
        0.0,
        0.0,
        0.0,
        0.0,
        0.31544017791748047,
        0.0,
        0.0,
        0.0,
        0.0,
        0.31544017791748047,
        0.0,
        0.0,
        0.0,
        0.0,
        1.0
      ],
      "name": "Easel_LOD0"
    },
    {
      "mesh": 0,
      "name": "Easel_LOD0__0"
    },
    {
      "children": [
        6
      ],
      "matrix": [
        0.31544017791748047,
        0.0,
        0.0,
        0.0,
        0.0,
        0.31544017791748047,
        0.0,
        0.0,
        0.0,
        0.0,
        0.31544017791748047,
        0.0,
        0.0,
        0.0,
        0.0,
        1.0
      ],
      "name": "Easel_LOD1"
    },
    {
      "mesh": 1,
      "name": "Easel_LOD1__0"
    }
  ],
  "samplers": [
    {
      "magFilter": 9729,
      "minFilter": 9987,
      "wrapS": 10497,
      "wrapT": 10497
    }
  ],
  "scene": 0,
  "scenes": [
    {
      "name": "Sketchfab_Scene",
      "nodes": [
        0
      ]
    }
  ],
  "textures": [
    {
      "sampler": 0,
      "source": 0
    },
    {
      "sampler": 0,
      "source": 1
    },
    {
      "sampler": 0,
      "source": 2
    }
  ]
}
