{
  "accessors": [
    {
      "bufferView": 2,
      "componentType": 5126,
      "count": 8138,
      "max": [
        0.9999818801879883,
        1.0,
        0.9999275803565979
      ],
      "min": [
        -0.9999818801879883,
        -1.8255656957626343,
        -1.0
      ],
      "type": "VEC3"
    },
    {
      "bufferView": 2,
      "byteOffset": 97656,
      "componentType": 5126,
      "count": 8138,
      "max": [
        0.9999819397926331,
        1.0,
        1.0
      ],
      "min": [
        -0.9999819993972778,
        -1.0,
        -1.0
      ],
      "type": "VEC3"
    },
    {
      "bufferView": 1,
      "componentType": 5126,
      "count": 8138,
      "max": [
        1.0,
        1.0
      ],
      "min": [
        -3.559049218893051e-06,
        0.010017380118370056
      ],
      "type": "VEC2"
    },
    {
      "bufferView": 0,
      "componentType": 5125,
      "count": 15648,
      "type": "SCALAR"
    },
    {
      "bufferView": 2,
      "byteOffset": 195312,
      "componentType": 5126,
      "count": 1566,
      "max": [
        0.9999818801879883,
        1.0,
        0.9999275803565979
      ],
      "min": [
        -0.9999818801879883,
        -10.052024841308594,
        -1.0
      ],
      "type": "VEC3"
    },
    {
      "bufferView": 2,
      "byteOffset": 214104,
      "componentType": 5126,
      "count": 1566,
      "max": [
        0.9999818801879883,
        1.0,
        1.0
      ],
      "min": [
        -0.9999819397926331,
        -1.0,
        -0.9999276399612427
      ],
      "type": "VEC3"
    },
    {
      "bufferView": 1,
      "byteOffset": 65104,
      "componentType": 5126,
      "count": 1566,
      "max": [
        1.0,
        1.0
      ],
      "min": [
        -3.559049218893051e-06,
        0.010017380118370056
      ],
      "type": "VEC2"
    },
    {
      "bufferView": 0,
      "byteOffset": 62592,
      "componentType": 5125,
      "count": 3120,
      "type": "SCALAR"
    },
    {
      "bufferView": 2,
      "byteOffset": 232896,
      "componentType": 5126,
      "count": 11044,
      "max": [
        0.9999818801879883,
        1.0,
        0.9999275803565979
      ],
      "min": [
        -0.9999818801879883,
        -1.0,
        -1.0
      ],
      "type": "VEC3"
    },
    {
      "bufferView": 2,
      "byteOffset": 365424,
      "componentType": 5126,
      "count": 11044,
      "max": [
        1.0,
        1.0,
        1.0
      ],
      "min": [
        -1.0,
        -1.0,
        -1.0
      ],
      "type": "VEC3"
    },
    {
      "bufferView": 1,
      "byteOffset": 77632,
      "componentType": 5126,
      "count": 11044,
      "max": [
        1.0,
        1.0
      ],
      "min": [
        -3.5590494462667266e-06,
        0.010017380118370056
      ],
      "type": "VEC2"
    },
    {
      "bufferView": 0,
      "byteOffset": 75072,
      "componentType": 5125,
      "count": 22116,
      "type": "SCALAR"
    },
    {
      "bufferView": 2,
      "byteOffset": 497952,
      "componentType": 5126,
      "count": 23040,
      "max": [
        3.5982069969177246,
        1.0,
        3.5980117321014404
      ],
      "min": [
        -3.969097137451172,
        -2.405742645263672,
        -3.5982718467712402
      ],
      "type": "VEC3"
    },
    {
      "bufferView": 2,
      "byteOffset": 774432,
      "componentType": 5126,
      "count": 23040,
      "max": [
        1.0,
        1.0,
        1.0
      ],
      "min": [
        -1.0,
        -1.0,
        -1.0
      ],
      "type": "VEC3"
    },
    {
      "bufferView": 1,
      "byteOffset": 165984,
      "componentType": 5126,
      "count": 23040,
      "max": [
        1.0,
        1.0
      ],
      "min": [
        -3.559049218893051e-06,
        0.0
      ],
      "type": "VEC2"
    },
    {
      "bufferView": 0,
      "byteOffset": 163536,
      "componentType": 5125,
      "count": 38022,
      "type": "SCALAR"
    },
    {
      "bufferView": 2,
      "byteOffset": 1050912,
      "componentType": 5126,
      "count": 5226,
      "max": [
        1.0135278701782227,
        2.4113755226135254,
        1.0134717226028442
      ],
      "min": [
        -1.0135257244110107,
        -1.0,
        -1.013545274734497
      ],
      "type": "VEC3"
    },
    {
      "bufferView": 2,
      "byteOffset": 1113624,
      "componentType": 5126,
      "count": 5226,
      "max": [
        0.9999818801879883,
        1.0,
        1.0
      ],
      "min": [
        -0.9999819993972778,
        -1.0,
        -0.9999276399612427
      ],
      "type": "VEC3"
    },
    {
      "bufferView": 1,
      "byteOffset": 350304,
      "componentType": 5126,
      "count": 5226,
      "max": [
        1.0,
        1.0
      ],
      "min": [
        -3.559049218893051e-06,
        0.010017380118370056
      ],
      "type": "VEC2"
    },
    {
      "bufferView": 0,
      "byteOffset": 315624,
      "componentType": 5125,
      "count": 9384,
      "type": "SCALAR"
    }
  ],
  "asset": {
    "extras": {
      "author": "ApolloIndustries (https://sketchfab.com/TheOfficialApolloIndustries)",
      "license": "CC-BY-4.0 (http://creativecommons.org/licenses/by/4.0/)",
      "source": "https://sketchfab.com/3d-models/bunsen-burner-17ada53906f848e0aa875bafbc9013ec",
      "title": "Bunsen Burner"
    },
    "generator": "Sketchfab-12.67.0",
    "version": "2.0"
  },
  "bufferViews": [
    {
      "buffer": 0,
      "byteLength": 353160,
      "name": "floatBufferViews",
      "target": 34963
    },
    {
      "buffer": 0,
      "byteLength": 392112,
      "byteOffset": 353160,
      "byteStride": 8,
      "name": "floatBufferViews",
      "target": 34962
    },
    {
      "buffer": 0,
      "byteLength": 1176336,
      "byteOffset": 745272,
      "byteStride": 12,
      "name": "floatBufferViews",
      "target": 34962
    }
  ],
  "buffers": [
    {
      "byteLength": 1921608,
      "uri": "scene.bin"
    }
  ],
  "materials": [
    {
      "doubleSided": true,
      "name": "Material.001",
      "pbrMetallicRoughness": {
        "baseColorFactor": [
          0.730461,
          0.617207,
          0.313989,
          1.0
        ],
        "metallicFactor": 0.88,
        "roughnessFactor": 0.36
      }
    },
    {
      "doubleSided": true,
      "name": "Material.002",
      "pbrMetallicRoughness": {
        "baseColorFactor": [
          0.564712,
          0.564712,
          0.564712,
          1.0
        ],
        "metallicFactor": 0.7,
        "roughnessFactor": 0.506667
      }
    },
    {
      "doubleSided": true,
      "name": "Material.003",
      "pbrMetallicRoughness": {
        "metallicFactor": 0.86,
        "roughnessFactor": 0.566667
      }
    },
    {
      "doubleSided": true,
      "name": "Material.004",
      "pbrMetallicRoughness": {
        "baseColorFactor": [
          0.8,
          0.8,
          0.8,
          1.0
        ],
        "roughnessFactor": 0.433333
      }
    },
    {
      "doubleSided": true,
      "name": "Material.005",
      "pbrMetallicRoughness": {
        "baseColorFactor": [
          0.730461,
          0.617207,
          0.313989,
          1.0
        ],
        "metallicFactor": 0.88,
        "roughnessFactor": 0.36
      }
    }
  ],
  "meshes": [
    {
      "name": "Object_0",
      "primitives": [
        {
          "attributes": {
            "NORMAL": 1,
            "POSITION": 0,
            "TEXCOORD_0": 2
          },
          "indices": 3,
          "material": 0,
          "mode": 4
        }
      ]
    },
    {
      "name": "Object_1",
      "primitives": [
        {
          "attributes": {
            "NORMAL": 5,
            "POSITION": 4,
            "TEXCOORD_0": 6
          },
          "indices": 7,
          "material": 1,
          "mode": 4
        }
      ]
    },
    {
      "name": "Object_2",
      "primitives": [
        {
          "attributes": {
            "NORMAL": 9,
            "POSITION": 8,
            "TEXCOORD_0": 10
          },
          "indices": 11,
          "material": 2,
          "mode": 4
        }
      ]
    },
    {
      "name": "Object_3",
      "primitives": [
        {
          "attributes": {
            "NORMAL": 13,
            "POSITION": 12,
            "TEXCOORD_0": 14
          },
          "indices": 15,
          "material": 3,
          "mode": 4
        }
      ]
    },
    {
      "name": "Object_4",
      "primitives": [
        {
          "attributes": {
            "NORMAL": 17,
            "POSITION": 16,
            "TEXCOORD_0": 18
          },
          "indices": 19,
          "material": 4,
          "mode": 4
        }
      ]
    }
  ],
  "nodes": [
    {
      "children": [
        1
      ],
      "matrix": [
        4.433195083639147e-18,
        7.6438658893505e-18,
        -0.019965335726737976,
        0.0,
        -0.019965335726737976,
        3.2106708057113545e-18,
        -4.433195083639146e-18,
        0.0,
        3.2106708057113534e-18,
        0.019965335726737976,
        7.6438658893505e-18,
        0.0,
        0.5738404393196106,
        -1.2736253416200657e-16,
        0.5735898613929749,
        1.0
      ],
      "name": "Sketchfab_model"
    },
    {
      "children": [
        2
      ],
      "name": "root"
    },
    {
      "children": [
        3,
        5,
        7,
        9,
        11
      ],
      "matrix": [
        1.0,
        0.0,
        0.0,
        0.0,
        0.0,
        2.220446049250313e-16,
        1.0,
        0.0,
        0.0,
        -1.0,
        2.220446049250313e-16,
        0.0,
        0.0,
        0.0,
        0.0,
        1.0
      ],
      "name": "GLTF_SceneRootNode"
    },
    {
      "children": [
        4
      ],
      "matrix": [
        1.0,
        0.0,
        0.0,
        0.0,
        0.0,
        0.9225819110870361,
        0.0,
        0.0,
        0.0,
        0.0,
        1.0,
        0.0,
        0.0,
        0.0,
        0.0,
        1.0
      ],
      "name": "Cylinder_0"
    },
    {
      "mesh": 0,
      "name": "Object_4"
    },
    {
      "children": [
        6
      ],
      "matrix": [
        0.7211195230484009,
        0.0,
        0.0,
        0.0,
        0.0,
        0.8694153428077698,
        0.0,
        0.0,
        0.0,
        0.0,
        0.7211195230484009,
        0.0,
        0.0,
        -2.407876491546631,
        0.0,
        1.0
      ],
      "name": "Cylinder.001_1"
    },
    {
      "mesh": 1,
      "name": "Object_6"
    },
    {
      "children": [
        8
      ],
      "matrix": [
        0.8278979659080505,
        0.0,
        0.0,
        0.0,
        0.0,
        1.6671439409255981,
        0.0,
        0.0,
        0.0,
        0.0,
        0.8278979659080505,
        0.0,
        0.0,
        -9.334816932678223,
        0.0,
        1.0
      ],
      "name": "Cylinder.002_2"
    },
    {
      "mesh": 2,
      "name": "Object_8"
    },
    {
      "children": [
        10
      ],
      "matrix": [
        1.0,
        0.0,
        0.0,
        0.0,
        0.0,
        1.0,
        0.0,
        0.0,
        0.0,
        0.0,
        1.0,
        0.0,
        0.0,
        -12.118457794189453,
        0.0,
        1.0
      ],
      "name": "Cylinder.003_3"
    },
    {
      "mesh": 3,
      "name": "Object_10"
    },
    {
      "children": [
        12
      ],
      "matrix": [
        0.0,
        -0.4454212784767151,
        -0.0,
        0.0,
        1.0334707498550415,
        0.0,
        0.0,
        0.0,
        0.0,
        -0.0,
        0.4454212784767151,
        0.0,
        2.624450206756592,
        -12.377896308898926,
        0.0,
        1.0
      ],
      "name": "Cylinder.004_4"
    },
    {
      "mesh": 4,
      "name": "Object_12"
    }
  ],
  "scene": 0,
  "scenes": [
    {
      "name": "Sketchfab_Scene",
      "nodes": [
        0
      ]
    }
  ]
}
